<svg version="1.1" id="Layer_1" xmlns="http://www.w3.org/2000/svg" xmlns:xlink="http://www.w3.org/1999/xlink" x="0px" y="0px"
	 width="100%" viewBox="0 0 500 500" enable-background="new 0 0 500 500" xml:space="preserve">
<path fill="#041D35" opacity="1.000000" stroke="none" 
	d="
M0.999992,479.000000 
	C1.000000,327.642578 1.000000,176.285187 1.312100,24.332161 
	C1.975996,23.397049 2.469589,23.122360 2.658753,22.708521 
	C6.870507,13.494285 13.107205,6.405496 22.964535,2.977099 
	C23.774284,2.695467 24.327557,1.676413 25.000000,1.000000 
	C176.024078,1.000000 327.048157,1.000000 478.667847,1.312095 
	C487.639404,6.153458 494.957733,11.831324 499.711639,20.331194 
	C499.908966,20.683962 500.560242,20.782835 501.000000,20.999994 
	C501.000000,174.357407 501.000000,327.714813 500.689514,481.661987 
	C496.047516,488.812073 491.513489,495.166107 484.345612,499.039642 
	C483.725159,499.374939 483.440582,500.331848 483.000000,501.000000 
	C329.309265,501.000000 175.618515,501.000000 21.353729,500.680359 
	C16.209606,496.385101 11.376081,492.665710 7.167498,488.338440 
	C4.612345,485.711273 3.023130,482.144623 0.999992,479.000000 
M306.095886,181.537125 
	C295.742798,185.095612 286.477081,190.391556 278.261871,197.750153 
	C254.456741,219.073059 249.693359,269.414398 290.443634,289.055298 
	C294.184998,290.858551 297.910248,292.892334 301.871429,294.007782 
	C317.875092,298.514160 334.057068,302.403381 349.991669,307.132202 
	C358.215027,309.572601 366.644836,312.313721 373.934845,316.670227 
	C384.972656,323.266510 384.805725,337.566650 374.252045,345.003387 
	C371.060883,347.252106 367.252411,348.961304 363.473969,349.982635 
	C345.944641,354.720825 328.480194,352.957397 311.173309,348.567444 
	C297.361603,345.064056 284.560913,339.180695 272.476257,330.870483 
	C266.876831,343.318665 261.457062,355.367523 255.770172,368.010193 
	C261.908813,371.413727 267.365936,374.973267 273.239380,377.603058 
	C298.020691,388.698578 324.106293,392.793396 351.133301,391.326477 
	C369.158508,390.348145 386.424103,386.593079 401.951721,376.890594 
	C424.224854,362.973206 434.564301,338.559357 428.788635,313.163361 
	C424.652435,294.976227 412.433624,283.348755 395.773651,277.143188 
	C380.254761,271.362701 363.923798,267.788818 348.032806,262.971375 
	C338.044739,259.943451 327.676788,257.477386 318.432678,252.853287 
	C305.447174,246.357666 305.018097,230.129990 317.081665,221.935318 
	C321.227600,219.119034 326.279327,217.095810 331.201538,216.055893 
	C352.870056,211.478058 373.516083,215.776474 393.491089,224.385712 
	C397.727356,226.211533 401.827698,228.352783 406.448914,230.568420 
	C411.489502,218.107819 416.376984,206.025787 421.518005,193.316986 
	C384.429840,174.084427 346.442200,170.254318 306.095886,181.537125 
M132.484024,270.499634 
	C132.484024,309.584808 132.484024,348.669952 132.484024,387.874237 
	C149.052521,387.874237 164.808182,387.874237 181.172760,387.874237 
	C181.172760,385.481049 181.172745,383.360901 181.172760,381.240784 
	C181.172943,328.918640 181.235474,276.596283 181.066666,224.274719 
	C181.051529,219.587158 182.457962,218.371826 186.967438,218.425827 
	C205.294205,218.645401 223.625168,218.516190 241.954575,218.515610 
	C243.885788,218.515549 245.817017,218.515610 247.704346,218.515610 
	C247.704346,204.842361 247.704346,191.966141 247.704346,179.188858 
	C186.828232,179.188858 126.421257,179.188858 65.962975,179.188858 
	C65.962975,192.426727 65.962975,205.297577 65.962975,218.515915 
	C68.425758,218.515915 70.413063,218.515778 72.400360,218.515915 
	C90.729774,218.517242 109.059967,218.608398 127.387955,218.447296 
	C131.242157,218.413437 132.612091,219.509033 132.560364,223.510483 
	C132.362228,238.837952 132.482605,254.169556 132.484024,270.499634 
M257.471222,135.362579 
	C257.471222,137.812149 257.471222,140.261719 257.471222,142.718231 
	C270.627930,142.718231 283.086426,142.858536 295.537048,142.607880 
	C298.248505,142.553284 301.094666,141.437927 303.599701,140.231598 
	C314.076019,135.186569 315.041565,120.967468 305.454498,114.428497 
	C304.432556,113.731491 303.334747,113.145699 301.994965,112.342041 
	C307.773285,107.544579 310.437164,101.987282 308.257202,94.876503 
	C306.148071,87.996696 300.461395,84.979477 294.211090,84.633347 
	C282.177063,83.966934 270.079956,84.439102 257.471252,84.439102 
	C257.471252,101.155418 257.471252,117.776321 257.471222,135.362579 
M71.885666,126.509422 
	C80.130714,142.601013 99.869408,148.947083 116.901268,140.982132 
	C131.928482,133.954651 138.420898,116.169594 131.562607,100.819481 
	C124.699165,85.457848 105.088188,78.439034 88.061363,85.250298 
	C72.055725,91.653053 65.117088,108.700333 71.885666,126.509422 
M189.900574,112.060448 
	C188.755737,106.221626 186.242783,101.219528 180.522888,98.734001 
	C172.227097,95.129143 164.298096,96.454193 156.894012,101.495575 
	C155.409775,97.029617 152.298080,96.295403 143.899902,98.228134 
	C143.899902,113.056206 143.899902,127.919632 143.899902,142.723389 
	C148.390411,142.723389 152.436310,142.723389 156.867554,142.723389 
	C156.867554,134.788635 156.838989,127.311592 156.878662,119.834915 
	C156.901093,115.607826 158.148422,111.920135 162.058990,109.681686 
	C169.428360,105.463394 176.724030,109.660538 176.934845,118.406487 
	C177.130173,126.510307 176.976471,134.622559 176.976471,142.776276 
	C181.702667,142.776276 185.748474,142.776276 189.989624,142.776276 
	C189.989624,132.562775 189.989624,122.756966 189.900574,112.060448 
M383.765106,106.332497 
	C376.199219,118.277031 378.496735,132.349564 389.173553,139.460220 
	C399.950439,146.637512 417.625854,145.017044 423.743561,136.132538 
	C421.663330,133.884628 419.556732,131.608215 417.535797,129.424362 
	C405.590271,136.040649 395.581146,133.980057 393.295654,124.278732 
	C404.468872,124.278732 415.538300,124.278732 427.020203,124.278732 
	C427.163971,122.194870 427.454010,120.577095 427.356567,118.982994 
	C426.728271,108.701393 421.193146,101.096062 412.280212,98.116829 
	C402.077850,94.706589 391.390717,97.602516 383.765106,106.332497 
M207.520050,138.019516 
	C219.404861,146.514740 236.136795,145.873001 244.147995,136.321304 
	C241.968781,134.003021 239.759155,131.652390 237.635086,129.392761 
	C226.079605,136.152359 215.522949,133.882446 213.646744,124.602493 
	C213.941544,124.485252 214.235809,124.267136 214.531235,124.265511 
	C222.190018,124.223305 229.848892,124.190994 237.507782,124.183044 
	C248.754089,124.171371 250.191772,121.988487 246.040634,111.111145 
	C245.627686,110.029106 245.149246,108.951218 244.547211,107.965439 
	C239.158142,99.141281 230.959961,96.054680 221.097092,97.017929 
	C211.539093,97.951408 204.312729,102.672386 201.111710,111.947708 
	C197.815765,121.498108 199.288971,130.334045 207.520050,138.019516 
M362.012390,117.534348 
	C362.012390,114.768341 362.012390,112.002335 362.012390,109.108597 
	C366.093933,108.904640 369.481140,108.735382 372.918213,108.563629 
	C372.918213,104.992409 372.918213,102.046074 372.918213,98.748245 
	C369.277252,98.550697 365.871704,98.365921 362.241547,98.168961 
	C362.077698,94.491669 361.933075,91.246262 361.782288,87.862106 
	C357.356873,87.862106 353.302795,87.862106 349.288574,87.862106 
	C347.664062,92.368118 352.180725,100.388863 342.193665,98.666374 
	C342.193665,102.244858 342.193665,105.314377 342.193665,108.496216 
	C344.465546,108.777939 346.384033,109.015839 348.817993,109.317657 
	C348.817993,115.286072 348.780670,121.073624 348.825836,126.860527 
	C348.917175,138.558441 354.938416,144.359436 366.551270,143.998230 
	C376.163025,143.699295 377.323578,141.895065 373.476440,133.194656 
	C373.356140,132.922546 373.017517,132.746948 372.775848,132.531555 
	C363.720093,134.478683 362.016449,133.049744 362.012482,123.503296 
	C362.011810,121.839195 362.012390,120.175095 362.012390,117.534348 
M334.845947,140.888458 
	C334.855621,128.223969 334.659668,115.554192 334.984650,102.897797 
	C335.101013,98.366852 333.613434,96.817650 329.322540,97.410400 
	C328.177734,97.568542 326.986511,97.515396 325.827606,97.422401 
	C322.609039,97.164177 321.344055,98.579163 321.397247,101.809792 
	C321.523376,109.473083 321.434326,117.139915 321.433258,124.805313 
	C321.432404,130.749069 321.433075,136.692810 321.433075,143.822571 
	C326.389801,143.059555 330.576843,142.415024 334.845947,140.888458 
M329.256500,91.096230 
	C333.688690,90.585876 336.327087,88.147240 336.388275,83.659897 
	C336.440826,79.806778 334.046722,77.628693 330.384033,76.810303 
	C325.406799,75.698204 320.757111,78.454330 320.086578,82.891205 
	C319.416748,87.323280 322.507355,90.379425 329.256500,91.096230 
z"/>
<path fill="#000000" opacity="1.000000" stroke="none" 
	d="
M24.531307,1.000000 
	C24.327557,1.676413 23.774284,2.695467 22.964535,2.977099 
	C13.107205,6.405496 6.870507,13.494285 2.658753,22.708521 
	C2.469589,23.122360 1.975996,23.397049 1.312100,23.868277 
	C1.000000,16.405445 1.000000,8.810891 1.000000,1.000000 
	C8.686191,1.000000 16.374403,1.000000 24.531307,1.000000 
z"/>
<path fill="#000000" opacity="1.000000" stroke="none" 
	d="
M501.000000,20.530952 
	C500.560242,20.782835 499.908966,20.683962 499.711639,20.331194 
	C494.957733,11.831324 487.639404,6.153458 479.131714,1.312095 
	C486.255920,1.000000 493.511841,1.000000 501.000000,1.000000 
	C501.000000,7.352096 501.000000,13.707006 501.000000,20.530952 
z"/>
<path fill="#000000" opacity="1.000000" stroke="none" 
	d="
M0.999992,479.468781 
	C3.023130,482.144623 4.612345,485.711273 7.167498,488.338440 
	C11.376081,492.665710 16.209606,496.385101 20.889843,500.680359 
	C14.403625,501.000000 7.807249,501.000000 1.000000,501.000000 
	C1.000000,493.980591 1.000000,486.959076 0.999992,479.468781 
z"/>
<path fill="#000000" opacity="1.000000" stroke="none" 
	d="
M483.469727,501.000000 
	C483.440582,500.331848 483.725159,499.374939 484.345612,499.039642 
	C491.513489,495.166107 496.047516,488.812073 500.689514,482.125885 
	C501.000000,488.257080 501.000000,494.514191 501.000000,501.000000 
	C495.315155,501.000000 489.627289,501.000000 483.469727,501.000000 
z"/>
<path fill="#419AD5" opacity="1.000000" stroke="none" 
	d="
M306.463684,181.384720 
	C346.442200,170.254318 384.429840,174.084427 421.518005,193.316986 
	C416.376984,206.025787 411.489502,218.107819 406.448914,230.568420 
	C401.827698,228.352783 397.727356,226.211533 393.491089,224.385712 
	C373.516083,215.776474 352.870056,211.478058 331.201538,216.055893 
	C326.279327,217.095810 321.227600,219.119034 317.081665,221.935318 
	C305.018097,230.129990 305.447174,246.357666 318.432678,252.853287 
	C327.676788,257.477386 338.044739,259.943451 348.032806,262.971375 
	C363.923798,267.788818 380.254761,271.362701 395.773651,277.143188 
	C412.433624,283.348755 424.652435,294.976227 428.788635,313.163361 
	C434.564301,338.559357 424.224854,362.973206 401.951721,376.890594 
	C386.424103,386.593079 369.158508,390.348145 351.133301,391.326477 
	C324.106293,392.793396 298.020691,388.698578 273.239380,377.603058 
	C267.365936,374.973267 261.908813,371.413727 255.770172,368.010193 
	C261.457062,355.367523 266.876831,343.318665 272.476257,330.870483 
	C284.560913,339.180695 297.361603,345.064056 311.173309,348.567444 
	C328.480194,352.957397 345.944641,354.720825 363.473969,349.982635 
	C367.252411,348.961304 371.060883,347.252106 374.252045,345.003387 
	C384.805725,337.566650 384.972656,323.266510 373.934845,316.670227 
	C366.644836,312.313721 358.215027,309.572601 349.991669,307.132202 
	C334.057068,302.403381 317.875092,298.514160 301.871429,294.007782 
	C297.910248,292.892334 294.184998,290.858551 290.443634,289.055298 
	C249.693359,269.414398 254.456741,219.073059 278.261871,197.750153 
	C286.477081,190.391556 295.742798,185.095612 306.463684,181.384720 
z"/>
<path fill="#409AD4" opacity="1.000000" stroke="none" 
	d="
M132.484070,269.999634 
	C132.482605,254.169556 132.362228,238.837952 132.560364,223.510483 
	C132.612091,219.509033 131.242157,218.413437 127.387955,218.447296 
	C109.059967,218.608398 90.729774,218.517242 72.400360,218.515915 
	C70.413063,218.515778 68.425758,218.515915 65.962975,218.515915 
	C65.962975,205.297577 65.962975,192.426727 65.962975,179.188858 
	C126.421257,179.188858 186.828232,179.188858 247.704346,179.188858 
	C247.704346,191.966141 247.704346,204.842361 247.704346,218.515610 
	C245.817017,218.515610 243.885788,218.515549 241.954575,218.515610 
	C223.625168,218.516190 205.294205,218.645401 186.967438,218.425827 
	C182.457962,218.371826 181.051529,219.587158 181.066666,224.274719 
	C181.235474,276.596283 181.172943,328.918640 181.172760,381.240784 
	C181.172745,383.360901 181.172760,385.481049 181.172760,387.874237 
	C164.808182,387.874237 149.052521,387.874237 132.484024,387.874237 
	C132.484024,348.669952 132.484024,309.584808 132.484070,269.999634 
z"/>
<path fill="#4098D2" opacity="1.000000" stroke="none" 
	d="
M257.471252,134.879898 
	C257.471252,117.776321 257.471252,101.155418 257.471252,84.439102 
	C270.079956,84.439102 282.177063,83.966934 294.211090,84.633347 
	C300.461395,84.979477 306.148071,87.996696 308.257202,94.876503 
	C310.437164,101.987282 307.773285,107.544579 301.994965,112.342041 
	C303.334747,113.145699 304.432556,113.731491 305.454498,114.428497 
	C315.041565,120.967468 314.076019,135.186569 303.599701,140.231598 
	C301.094666,141.437927 298.248505,142.553284 295.537048,142.607880 
	C283.086426,142.858536 270.627930,142.718231 257.471222,142.718231 
	C257.471222,140.261719 257.471222,137.812149 257.471252,134.879898 
M289.024536,132.952972 
	C295.982910,131.891983 298.294006,129.968033 298.133423,125.370026 
	C297.976990,120.891792 294.981567,118.495079 288.515686,118.233444 
	C282.936737,118.007706 277.341431,118.186592 271.487610,118.186592 
	C271.487610,123.390305 271.487610,127.932434 271.487610,132.991516 
	C277.241119,132.991516 282.677856,132.991516 289.024536,132.952972 
M291.968658,106.778381 
	C294.965454,104.950630 296.178986,101.871155 294.692505,99.120346 
	C293.544037,96.995110 290.687073,94.790421 288.359344,94.505959 
	C282.872711,93.835457 277.248444,94.290939 271.587189,94.290939 
	C271.587189,99.050522 271.587189,103.412697 271.587189,108.597031 
	C278.428345,108.079475 284.815399,107.596275 291.968658,106.778381 
z"/>
<path fill="#4098D2" opacity="1.000000" stroke="none" 
	d="
M71.716339,126.166595 
	C65.117088,108.700333 72.055725,91.653053 88.061363,85.250298 
	C105.088188,78.439034 124.699165,85.457848 131.562607,100.819481 
	C138.420898,116.169594 131.928482,133.954651 116.901268,140.982132 
	C99.869408,148.947083 80.130714,142.601013 71.716339,126.166595 
M88.856323,99.322540 
	C87.982849,100.319252 86.996727,101.239006 86.254471,102.325371 
	C81.940201,108.639786 81.823860,118.138428 86.128235,124.464165 
	C90.751991,131.259293 97.427681,133.433701 105.273521,132.127182 
	C112.947983,130.849213 117.664124,126.070763 119.630882,118.677681 
	C121.816544,110.461739 118.675484,101.838989 112.174126,97.501015 
	C105.561707,93.088928 96.605354,93.604584 88.856323,99.322540 
z"/>
<path fill="#3F97D1" opacity="1.000000" stroke="none" 
	d="
M189.945099,112.505798 
	C189.989624,122.756966 189.989624,132.562775 189.989624,142.776276 
	C185.748474,142.776276 181.702667,142.776276 176.976471,142.776276 
	C176.976471,134.622559 177.130173,126.510307 176.934845,118.406487 
	C176.724030,109.660538 169.428360,105.463394 162.058990,109.681686 
	C158.148422,111.920135 156.901093,115.607826 156.878662,119.834915 
	C156.838989,127.311592 156.867554,134.788635 156.867554,142.723389 
	C152.436310,142.723389 148.390411,142.723389 143.899902,142.723389 
	C143.899902,127.919632 143.899902,113.056206 143.899902,98.228134 
	C152.298080,96.295403 155.409775,97.029617 156.894012,101.495575 
	C164.298096,96.454193 172.227097,95.129143 180.522888,98.734001 
	C186.242783,101.219528 188.755737,106.221626 189.945099,112.505798 
z"/>
<path fill="#4098D3" opacity="1.000000" stroke="none" 
	d="
M383.970520,106.032402 
	C391.390717,97.602516 402.077850,94.706589 412.280212,98.116829 
	C421.193146,101.096062 426.728271,108.701393 427.356567,118.982994 
	C427.454010,120.577095 427.163971,122.194870 427.020203,124.278732 
	C415.538300,124.278732 404.468872,124.278732 393.295654,124.278732 
	C395.581146,133.980057 405.590271,136.040649 417.535797,129.424362 
	C419.556732,131.608215 421.663330,133.884628 423.743561,136.132538 
	C417.625854,145.017044 399.950439,146.637512 389.173553,139.460220 
	C378.496735,132.349564 376.199219,118.277031 383.970520,106.032402 
M393.561066,116.193321 
	C400.570801,116.193321 407.580536,116.193321 414.800598,116.193321 
	C412.499603,109.138214 408.952576,106.517952 402.902405,106.828140 
	C397.502533,107.104988 394.448700,109.810501 393.561066,116.193321 
z"/>
<path fill="#4098D3" opacity="1.000000" stroke="none" 
	d="
M207.244629,137.790100 
	C199.288971,130.334045 197.815765,121.498108 201.111710,111.947708 
	C204.312729,102.672386 211.539093,97.951408 221.097092,97.017929 
	C230.959961,96.054680 239.158142,99.141281 244.547211,107.965439 
	C245.149246,108.951218 245.627686,110.029106 246.040634,111.111145 
	C250.191772,121.988487 248.754089,124.171371 237.507782,124.183044 
	C229.848892,124.190994 222.190018,124.223305 214.531235,124.265511 
	C214.235809,124.267136 213.941544,124.485252 213.648499,124.606918 
	C215.522949,133.882446 226.079605,136.152359 237.635086,129.392761 
	C239.759155,131.652390 241.968781,134.003021 244.147995,136.321304 
	C236.136795,145.873001 219.404861,146.514740 207.244629,137.790100 
M227.332550,116.558197 
	C229.842911,116.438980 232.353287,116.319771 235.038193,116.192268 
	C232.668518,108.807739 228.355499,105.976723 221.836838,106.946754 
	C216.831421,107.691589 213.801437,111.053284 213.567307,116.558121 
	C217.850372,116.558121 222.118988,116.558121 227.332550,116.558197 
z"/>
<path fill="#3F98D2" opacity="1.000000" stroke="none" 
	d="
M362.012390,118.022675 
	C362.012390,120.175095 362.011810,121.839195 362.012482,123.503296 
	C362.016449,133.049744 363.720093,134.478683 372.778259,132.528961 
	C373.017517,132.746948 373.356140,132.922546 373.476440,133.194656 
	C377.323578,141.895065 376.163025,143.699295 366.551270,143.998230 
	C354.938416,144.359436 348.917175,138.558441 348.825836,126.860527 
	C348.780670,121.073624 348.817993,115.286072 348.817993,109.317657 
	C346.384033,109.015839 344.465546,108.777939 342.193665,108.496216 
	C342.193665,105.314377 342.193665,102.244858 342.193665,98.666374 
	C352.180725,100.388863 347.664062,92.368118 349.288574,87.862106 
	C353.302795,87.862106 357.356873,87.862106 361.782288,87.862106 
	C361.933075,91.246262 362.077698,94.491669 362.241547,98.168961 
	C365.871704,98.365921 369.277252,98.550697 372.918213,98.748245 
	C372.918213,102.046074 372.918213,104.992409 372.918213,108.563629 
	C369.481140,108.735382 366.093933,108.904640 362.012390,109.108597 
	C362.012390,112.002335 362.012390,114.768341 362.012390,118.022675 
z"/>
<path fill="#3D93CC" opacity="1.000000" stroke="none" 
	d="
M334.804932,141.329468 
	C330.576843,142.415024 326.389801,143.059555 321.433075,143.822571 
	C321.433075,136.692810 321.432404,130.749069 321.433258,124.805313 
	C321.434326,117.139915 321.523376,109.473083 321.397247,101.809792 
	C321.344055,98.579163 322.609039,97.164177 325.827606,97.422401 
	C326.986511,97.515396 328.177734,97.568542 329.322540,97.410400 
	C333.613434,96.817650 335.101013,98.366852 334.984650,102.897797 
	C334.659668,115.554192 334.855621,128.223969 334.804932,141.329468 
z"/>
<path fill="#3F97D1" opacity="1.000000" stroke="none" 
	d="
M328.849121,91.124710 
	C322.507355,90.379425 319.416748,87.323280 320.086578,82.891205 
	C320.757111,78.454330 325.406799,75.698204 330.384033,76.810303 
	C334.046722,77.628693 336.440826,79.806778 336.388275,83.659897 
	C336.327087,88.147240 333.688690,90.585876 328.849121,91.124710 
z"/>
<path fill="#06213A" opacity="1.000000" stroke="none" 
	d="
M288.569580,132.972244 
	C282.677856,132.991516 277.241119,132.991516 271.487610,132.991516 
	C271.487610,127.932434 271.487610,123.390305 271.487610,118.186592 
	C277.341431,118.186592 282.936737,118.007706 288.515686,118.233444 
	C294.981567,118.495079 297.976990,120.891792 298.133423,125.370026 
	C298.294006,129.968033 295.982910,131.891983 288.569580,132.972244 
z"/>
<path fill="#041E36" opacity="1.000000" stroke="none" 
	d="
M291.585571,106.945724 
	C284.815399,107.596275 278.428345,108.079475 271.587189,108.597031 
	C271.587189,103.412697 271.587189,99.050522 271.587189,94.290939 
	C277.248444,94.290939 282.872711,93.835457 288.359344,94.505959 
	C290.687073,94.790421 293.544037,96.995110 294.692505,99.120346 
	C296.178986,101.871155 294.965454,104.950630 291.585571,106.945724 
z"/>
<path fill="#041E36" opacity="1.000000" stroke="none" 
	d="
M89.123459,99.067627 
	C96.605354,93.604584 105.561707,93.088928 112.174126,97.501015 
	C118.675484,101.838989 121.816544,110.461739 119.630882,118.677681 
	C117.664124,126.070763 112.947983,130.849213 105.273521,132.127182 
	C97.427681,133.433701 90.751991,131.259293 86.128235,124.464165 
	C81.823860,118.138428 81.940201,108.639786 86.254471,102.325371 
	C86.996727,101.239006 87.982849,100.319252 89.123459,99.067627 
z"/>
<path fill="#092742" opacity="1.000000" stroke="none" 
	d="
M393.301056,115.879059 
	C394.448700,109.810501 397.502533,107.104988 402.902405,106.828140 
	C408.952576,106.517952 412.499603,109.138214 414.800598,116.193321 
	C407.580536,116.193321 400.570801,116.193321 393.301056,115.879059 
z"/>
<path fill="#092742" opacity="1.000000" stroke="none" 
	d="
M226.860077,116.558159 
	C222.118988,116.558121 217.850372,116.558121 213.567307,116.558121 
	C213.801437,111.053284 216.831421,107.691589 221.836838,106.946754 
	C228.355499,105.976723 232.668518,108.807739 235.038193,116.192268 
	C232.353287,116.319771 229.842911,116.438980 226.860077,116.558159 
z"/>
</svg>