<?xml version="1.0" standalone="no"?>
<!DOCTYPE svg PUBLIC "-//W3C//DTD SVG 20010904//EN"
 "http://www.w3.org/TR/2001/REC-SVG-20010904/DTD/svg10.dtd">
<svg version="1.0" xmlns="http://www.w3.org/2000/svg"
 width="500.000000pt" height="500.000000pt" viewBox="0 0 500.000000 500.000000"
 preserveAspectRatio="xMidYMid meet">

<g transform="translate(0.000000,500.000000) scale(0.100000,-0.100000)"
fill="#000000" stroke="none">
<path d="M240 4981 c-90 -28 -164 -94 -205 -182 l-25 -56 2 -2264 c3 -2192 4
-2265 22 -2299 37 -69 86 -118 148 -149 l61 -31 2262 0 2262 0 61 30 c70 35
114 82 148 154 l24 51 0 2261 0 2260 -26 51 c-32 65 -91 125 -152 155 l-47 23
-2255 2 c-1240 1 -2266 -2 -2280 -6z m3088 -761 c51 -48 5 -128 -67 -116 -45
7 -64 27 -64 67 0 62 84 93 131 49z m-2180 -70 c58 -25 132 -98 158 -156 23
-53 23 -185 0 -238 -26 -57 -100 -131 -157 -155 -119 -52 -271 -31 -362 49
-136 120 -136 330 0 450 90 79 243 101 361 50z m1845 -8 c92 -46 111 -159 38
-228 l-29 -27 30 -21 c52 -35 72 -70 72 -126 0 -63 -23 -96 -90 -130 -46 -24
-59 -25 -246 -28 l-198 -4 0 297 0 297 188 -4 c172 -3 191 -5 235 -26z m617
-67 l0 -55 55 0 55 0 0 -45 0 -45 -55 0 -55 0 0 -113 c0 -100 2 -116 20 -132
14 -13 28 -16 54 -11 34 6 36 5 51 -30 9 -22 12 -41 6 -47 -18 -18 -90 -27
-137 -17 -102 23 -124 65 -124 235 l0 115 -35 0 c-35 0 -35 0 -35 45 0 45 0
45 35 45 l35 0 0 55 0 55 65 0 65 0 0 -55z m-1845 -46 c50 -14 100 -64 114
-114 6 -22 11 -106 11 -187 l0 -148 -65 0 -65 0 0 150 c0 147 -1 152 -25 175
-32 32 -100 35 -138 5 -36 -29 -47 -76 -47 -212 l0 -118 -60 0 -60 0 0 225 0
225 60 0 c58 0 60 -1 60 -27 0 -25 1 -25 19 -9 45 40 125 55 196 35z m584 -21
c63 -33 103 -99 109 -179 l4 -59 -171 0 c-183 0 -188 -2 -155 -49 36 -50 123
-65 189 -31 l39 20 33 -32 c39 -37 33 -50 -36 -81 -69 -30 -179 -26 -250 10
-174 89 -156 349 29 414 69 24 145 20 209 -13z m1748 20 c32 -8 61 -25 94 -57
49 -48 69 -94 69 -163 l0 -38 -175 -2 -174 -3 12 -24 c7 -13 25 -34 40 -45 37
-28 131 -29 172 -2 l28 18 35 -35 35 -35 -41 -27 c-74 -49 -209 -50 -294 -3
-65 35 -101 95 -106 172 -5 76 9 126 51 172 62 72 154 98 254 72z m-767 -223
l0 -225 -60 0 -60 0 0 225 0 225 60 0 60 0 0 -225z m387 -571 c162 -24 337
-79 439 -139 l43 -25 -70 -171 c-38 -94 -72 -175 -74 -179 -3 -5 -47 11 -98
35 -177 84 -357 122 -536 112 -123 -6 -190 -25 -257 -70 -55 -37 -85 -89 -91
-156 -5 -59 18 -105 74 -147 60 -46 128 -69 378 -130 274 -68 356 -94 470
-153 206 -105 308 -282 291 -506 -12 -152 -63 -265 -170 -370 -87 -86 -157
-128 -285 -172 -150 -51 -272 -66 -486 -60 -196 6 -303 24 -474 79 -99 32
-248 101 -291 136 l-24 20 79 176 c43 97 80 176 82 176 1 0 42 -22 89 -49 162
-93 348 -147 546 -158 145 -8 251 7 335 48 86 41 116 83 121 163 4 73 -15 109
-79 155 -59 44 -125 66 -390 132 -130 32 -274 72 -319 88 -226 83 -358 209
-405 386 -19 76 -19 224 0 300 66 258 299 434 642 484 99 15 348 12 460 -5z
m-1247 -209 l0 -195 -335 0 -335 0 0 -850 0 -850 -240 0 -240 0 0 850 0 850
-335 0 -335 0 0 195 0 195 910 0 910 0 0 -195z"/>
<path d="M930 4054 c-19 -8 -43 -23 -53 -32 -75 -68 -75 -226 0 -294 51 -46
136 -60 201 -33 79 33 115 91 115 180 0 35 -6 72 -15 90 -47 88 -158 128 -248
89z"/>
<path d="M2700 3994 l0 -76 101 4 c97 4 103 5 126 32 28 33 25 70 -9 99 -16
14 -39 17 -119 17 l-99 0 0 -76z"/>
<path d="M2700 3755 l0 -75 111 0 c61 0 119 5 130 11 48 25 44 105 -7 128 -14
6 -72 11 -129 11 l-105 0 0 -75z"/>
<path d="M2185 3937 c-35 -16 -50 -32 -64 -70 l-11 -27 120 0 120 0 -13 32
c-24 60 -95 90 -152 65z"/>
<path d="M3994 3943 c-26 -5 -69 -50 -79 -80 -6 -23 -6 -23 109 -23 98 0 116
2 116 15 0 27 -33 67 -67 81 -33 14 -40 15 -79 7z"/>
</g>
</svg>
